<svg width="45" height="45" viewBox="0 0 45 45" fill="none" xmlns="http://www.w3.org/2000/svg">
<rect width="45" height="44.4" rx="22.2" fill="#4B9586"/>
<path d="M31.5948 11.0277H29.7501V12.6388H31.3612V32.7777H13.6389V12.6388H15.2501V11.0277H13.6389C13.4417 10.9992 13.2406 11.0128 13.049 11.0677C12.8573 11.1226 12.6795 11.2175 12.5273 11.3461C12.375 11.4748 12.2518 11.6343 12.1657 11.814C12.0796 11.9938 12.0326 12.1898 12.0278 12.3891V33.0274C12.0289 33.2073 12.0654 33.3851 12.1352 33.5509C12.2049 33.7166 12.3067 33.867 12.4346 33.9934C12.5625 34.1198 12.7141 34.2198 12.8807 34.2877C13.0472 34.3555 13.2255 34.3899 13.4053 34.3888H31.5948C31.7746 34.3899 31.9529 34.3555 32.1195 34.2877C32.286 34.2198 32.4376 34.1198 32.5655 33.9934C32.6934 33.867 32.7952 33.7166 32.865 33.5509C32.9348 33.3851 32.9712 33.2073 32.9723 33.0274V12.3891C32.9712 12.2093 32.9348 12.0314 32.865 11.8656C32.7952 11.6999 32.6934 11.5495 32.5655 11.4231C32.4376 11.2967 32.286 11.1967 32.1195 11.1289C31.9529 11.061 31.7746 11.0266 31.5948 11.0277Z" fill="white"/>
<path d="M28.9443 12.9049C28.9422 12.4078 28.7438 11.9316 28.3922 11.5801C28.0407 11.2285 27.5645 11.0301 27.0674 11.028H25.6174C25.4399 10.3349 25.0368 9.72052 24.4716 9.28181C23.9064 8.8431 23.2113 8.60498 22.4958 8.60498C21.7804 8.60498 21.0852 8.8431 20.5201 9.28181C19.9549 9.72052 19.5518 10.3349 19.3743 11.028H17.9324C17.4352 11.0301 16.959 11.2285 16.6075 11.5801C16.256 11.9316 16.0575 12.4078 16.0554 12.9049V15.8613H28.9443V12.9049ZM27.3332 14.2502H17.6665V12.9049C17.6665 12.87 17.6734 12.8354 17.6868 12.8032C17.7001 12.7709 17.7197 12.7416 17.7444 12.7169C17.7691 12.6923 17.7984 12.6727 17.8306 12.6593C17.8629 12.646 17.8975 12.6391 17.9324 12.6391H20.8888V11.8335C20.8888 11.4062 21.0585 10.9964 21.3606 10.6943C21.6628 10.3922 22.0726 10.2224 22.4999 10.2224C22.9272 10.2224 23.3369 10.3922 23.6391 10.6943C23.9412 10.9964 24.111 11.4062 24.111 11.8335V12.6391H27.0674C27.1379 12.6391 27.2055 12.6671 27.2553 12.7169C27.3052 12.7668 27.3332 12.8344 27.3332 12.9049V14.2502Z" fill="white"/>
<path d="M16.8611 18.2778H28.1389V19.8889H16.8611V18.2778Z" fill="white"/>
<path d="M16.8611 21.5H28.1389V23.1111H16.8611V21.5Z" fill="white"/>
<path d="M16.8611 24.7222H28.1389V26.3333H16.8611V24.7222Z" fill="white"/>
<path d="M16.8611 27.9443H28.1389V29.5554H16.8611V27.9443Z" fill="white"/>
</svg>
