<svg width="30" height="30" viewBox="0 0 30 30" fill="none" xmlns="http://www.w3.org/2000/svg">
<path d="M16.7693 12.7309H20.8078V14.077H16.7693V12.7309ZM12.7308 18.1155H11.3847V16.7693H10.0385V18.1155H8.69238V19.4617H10.0385V20.8078H11.3847V19.4617H12.7308V18.1155ZM8.69238 10.0386H12.7308V11.3847H8.69238V10.0386ZM16.7693 15.4232H20.8078V16.7693H16.7693V15.4232Z" fill="#4B9586"/>
<path d="M22.1538 6H7.34615C6.98924 6.00036 6.64705 6.1423 6.39467 6.39467C6.1423 6.64705 6.00036 6.98924 6 7.34615V22.1538C6.00036 22.5108 6.1423 22.853 6.39467 23.1053C6.64705 23.3577 6.98924 23.4996 7.34615 23.5H22.1538C22.5108 23.4996 22.853 23.3577 23.1053 23.1053C23.3577 22.853 23.4996 22.5108 23.5 22.1538V7.34615C23.4996 6.98924 23.3577 6.64705 23.1053 6.39467C22.853 6.1423 22.5108 6.00036 22.1538 6ZM14.0769 7.34615V14.0769H7.34615V7.34615H14.0769ZM7.34615 15.4231H14.0769V22.1538H7.34615V15.4231ZM15.4231 22.1538V7.34615H22.1538V22.1538H15.4231Z" fill="#4B9586"/>
</svg>
