<svg width="30" height="30" viewBox="0 0 30 30" fill="none" xmlns="http://www.w3.org/2000/svg">
<path d="M10.7693 5C10.9581 5 11.1392 5.075 11.2727 5.20851C11.4062 5.34201 11.4812 5.52308 11.4812 5.71189V7.04312H19.1259V5.72104C19.1259 5.53224 19.2009 5.35116 19.3344 5.21766C19.4679 5.08415 19.649 5.00915 19.8378 5.00915C20.0266 5.00915 20.2076 5.08415 20.3411 5.21766C20.4746 5.35116 20.5496 5.53224 20.5496 5.72104V7.04312H23.3057C23.8449 7.04312 24.3621 7.25727 24.7435 7.63849C25.1249 8.01971 25.3394 8.5368 25.3396 9.07606V23.3067C25.3394 23.8459 25.1249 24.363 24.7435 24.7442C24.3621 25.1255 23.8449 25.3396 23.3057 25.3396H7.03396C6.4947 25.3396 5.97751 25.1255 5.59609 24.7442C5.21468 24.363 5.00027 23.8459 5 23.3067V9.07606C5.00027 8.5368 5.21468 8.01971 5.59609 7.63849C5.97751 7.25727 6.4947 7.04312 7.03396 7.04312H10.0574V5.71087C10.0577 5.52224 10.1328 5.34143 10.2663 5.20815C10.3998 5.07486 10.5807 5 10.7693 5ZM6.42377 12.8735V23.3067C6.42377 23.3868 6.43956 23.4662 6.47022 23.5402C6.50089 23.6142 6.54583 23.6815 6.60249 23.7381C6.65915 23.7948 6.72642 23.8398 6.80045 23.8704C6.87448 23.9011 6.95383 23.9169 7.03396 23.9169H23.3057C23.3858 23.9169 23.4651 23.9011 23.5392 23.8704C23.6132 23.8398 23.6805 23.7948 23.7371 23.7381C23.7938 23.6815 23.8387 23.6142 23.8694 23.5402C23.9001 23.4662 23.9158 23.3868 23.9158 23.3067V12.8877L6.42377 12.8735ZM11.7802 19.8672V21.5615H10.0849V19.8672H11.7802ZM16.017 19.8672V21.5615H14.3227V19.8672H16.017ZM20.2547 19.8672V21.5615H18.5594V19.8672H20.2547ZM11.7802 15.8227V17.517H10.0849V15.8227H11.7802ZM16.017 15.8227V17.517H14.3227V15.8227H16.017ZM20.2547 15.8227V17.517H18.5594V15.8227H20.2547ZM10.0574 8.46587H7.03396C6.95383 8.46587 6.87448 8.48165 6.80045 8.51232C6.72642 8.54298 6.65915 8.58793 6.60249 8.64459C6.54583 8.70125 6.50089 8.76852 6.47022 8.84255C6.43956 8.91658 6.42377 8.99593 6.42377 9.07606V11.4507L23.9158 11.4649V9.07606C23.9158 8.99593 23.9001 8.91658 23.8694 8.84255C23.8387 8.76852 23.7938 8.70125 23.7371 8.64459C23.6805 8.58793 23.6132 8.54298 23.5392 8.51232C23.4651 8.48165 23.3858 8.46587 23.3057 8.46587H20.5496V9.41065C20.5496 9.59945 20.4746 9.78052 20.3411 9.91403C20.2076 10.0475 20.0266 10.1225 19.8378 10.1225C19.649 10.1225 19.4679 10.0475 19.3344 9.91403C19.2009 9.78052 19.1259 9.59945 19.1259 9.41065V8.46587H11.4812V9.40149C11.4812 9.5903 11.4062 9.77137 11.2727 9.90487C11.1392 10.0384 10.9581 10.1134 10.7693 10.1134C10.5805 10.1134 10.3995 10.0384 10.266 9.90487C10.1324 9.77137 10.0574 9.5903 10.0574 9.40149V8.46587Z" fill="#4B9586"/>
</svg>
