<svg width="30" height="30" viewBox="0 0 30 30" fill="none" xmlns="http://www.w3.org/2000/svg">
<path d="M22.1739 10.7273V11.1173C22.1739 14.1491 23.4059 14.9491 26 16.1818V20.7273H23.6087M22.1739 10.7273H24.087V10.2727C24.087 10.2727 22.6522 9.36364 22.1739 8H4V20.7273H5.91304M22.1739 10.7273H17.3913V14.3636H23.1486M23.6087 20.7273C23.6087 21.33 23.3568 21.9081 22.9083 22.3343C22.4598 22.7606 21.8516 23 21.2174 23C20.5832 23 19.9749 22.7606 19.5265 22.3343C19.078 21.9081 18.8261 21.33 18.8261 20.7273M23.6087 20.7273C23.6087 20.1245 23.3568 19.5464 22.9083 19.1202C22.4598 18.694 21.8516 18.4545 21.2174 18.4545C20.5832 18.4545 19.9749 18.694 19.5265 19.1202C19.078 19.5464 18.8261 20.1245 18.8261 20.7273M5.91304 20.7273C5.91304 21.33 6.16498 21.9081 6.61344 22.3343C7.0619 22.7606 7.67013 23 8.30435 23C8.93856 23 9.5468 22.7606 9.99526 22.3343C10.4437 21.9081 10.6957 21.33 10.6957 20.7273M5.91304 20.7273C5.91304 20.1245 6.16498 19.5464 6.61344 19.1202C7.0619 18.694 7.67013 18.4545 8.30435 18.4545C8.93856 18.4545 9.5468 18.694 9.99526 19.1202C10.4437 19.5464 10.6957 20.1245 10.6957 20.7273M18.8261 20.7273H10.6957M14.5217 14.3636V10.7273H6.86957V14.3636H14.5217Z" stroke="#4B9586" stroke-width="1.5"/>
</svg>
