<svg width="45" height="45" viewBox="0 0 45 45" fill="none" xmlns="http://www.w3.org/2000/svg">
<rect width="45" height="44.4" rx="22.2" fill="#4B9586"/>
<path d="M17.915 25.0478C17.915 22.0433 19.385 19.3856 21.65 17.6667H11L13.25 11.1667H29.75L31.58 16.4533C32.84 16.9878 33.95 17.7678 34.865 18.7356L31.88 10.4444C31.58 9.60667 30.74 9 29.75 9H13.25C12.26 9 11.42 9.60667 11.12 10.4444L8 19.1111V30.6667C8 31.4611 8.675 32.1111 9.5 32.1111H11C11.825 32.1111 12.5 31.4611 12.5 30.6667V29.2222H18.935C18.29 27.9656 17.915 26.55 17.915 25.0478ZM13.25 24.8889C12.005 24.8889 11 23.9211 11 22.7222C11 21.5233 12.005 20.5556 13.25 20.5556C14.495 20.5556 15.5 21.5233 15.5 22.7222C15.5 23.9211 14.495 24.8889 13.25 24.8889ZM27.665 18.5478C31.415 18.5478 34.415 21.4367 34.415 25.0478C34.415 26.3333 34.04 27.5178 33.38 28.5L38 32.9922L35.915 35L31.25 30.5656C30.2 31.1867 29 31.5478 27.665 31.5478C23.915 31.5478 20.915 28.6589 20.915 25.0478C20.915 21.4367 23.915 18.5478 27.665 18.5478ZM27.665 21.4367C26.9233 21.4367 26.1983 21.6485 25.5816 22.0452C24.9649 22.442 24.4843 23.006 24.2005 23.6659C23.9166 24.3257 23.8424 25.0518 23.9871 25.7523C24.1318 26.4528 24.4889 27.0962 25.0133 27.6012C25.5378 28.1062 26.206 28.4502 26.9334 28.5895C27.6608 28.7288 28.4148 28.6573 29.1001 28.384C29.7853 28.1107 30.371 27.6478 30.783 27.054C31.1951 26.4602 31.415 25.762 31.415 25.0478C31.415 23.04 29.75 21.4367 27.665 21.4367Z" fill="white"/>
</svg>
