<svg width="30" height="30" viewBox="0 0 30 30" fill="none" xmlns="http://www.w3.org/2000/svg">
<mask id="path-1-inside-1_7_545" fill="white">
<path d="M8.77778 13.25L10.1111 9.3125H19.8889L21.2222 13.25M19.8889 17.625C19.5353 17.625 19.1961 17.4867 18.9461 17.2406C18.696 16.9944 18.5556 16.6606 18.5556 16.3125C18.5556 15.9644 18.696 15.6306 18.9461 15.3844C19.1961 15.1383 19.5353 15 19.8889 15C20.2425 15 20.5816 15.1383 20.8317 15.3844C21.0817 15.6306 21.2222 15.9644 21.2222 16.3125C21.2222 16.6606 21.0817 16.9944 20.8317 17.2406C20.5816 17.4867 20.2425 17.625 19.8889 17.625ZM10.1111 17.625C9.75749 17.625 9.41835 17.4867 9.1683 17.2406C8.91825 16.9944 8.77778 16.6606 8.77778 16.3125C8.77778 15.9644 8.91825 15.6306 9.1683 15.3844C9.41835 15.1383 9.75749 15 10.1111 15C10.4647 15 10.8039 15.1383 11.0539 15.3844C11.304 15.6306 11.4444 15.9644 11.4444 16.3125C11.4444 16.6606 11.304 16.9944 11.0539 17.2406C10.8039 17.4867 10.4647 17.625 10.1111 17.625ZM21.1511 8.875C20.9733 8.3675 20.4756 8 19.8889 8H10.1111C9.52444 8 9.02667 8.3675 8.84889 8.875L7 14.125V21.125C7 21.3571 7.09365 21.5796 7.26035 21.7437C7.42705 21.9078 7.65314 22 7.88889 22H8.77778C9.01353 22 9.23962 21.9078 9.40632 21.7437C9.57302 21.5796 9.66667 21.3571 9.66667 21.125V20.25H20.3333V21.125C20.3333 21.3571 20.427 21.5796 20.5937 21.7437C20.7604 21.9078 20.9865 22 21.2222 22H22.1111C22.3469 22 22.573 21.9078 22.7397 21.7437C22.9064 21.5796 23 21.3571 23 21.125V14.125L21.1511 8.875Z"/>
</mask>
<path d="M8.77778 13.25L10.1111 9.3125H19.8889L21.2222 13.25M19.8889 17.625C19.5353 17.625 19.1961 17.4867 18.9461 17.2406C18.696 16.9944 18.5556 16.6606 18.5556 16.3125C18.5556 15.9644 18.696 15.6306 18.9461 15.3844C19.1961 15.1383 19.5353 15 19.8889 15C20.2425 15 20.5816 15.1383 20.8317 15.3844C21.0817 15.6306 21.2222 15.9644 21.2222 16.3125C21.2222 16.6606 21.0817 16.9944 20.8317 17.2406C20.5816 17.4867 20.2425 17.625 19.8889 17.625ZM10.1111 17.625C9.75749 17.625 9.41835 17.4867 9.1683 17.2406C8.91825 16.9944 8.77778 16.6606 8.77778 16.3125C8.77778 15.9644 8.91825 15.6306 9.1683 15.3844C9.41835 15.1383 9.75749 15 10.1111 15C10.4647 15 10.8039 15.1383 11.0539 15.3844C11.304 15.6306 11.4444 15.9644 11.4444 16.3125C11.4444 16.6606 11.304 16.9944 11.0539 17.2406C10.8039 17.4867 10.4647 17.625 10.1111 17.625ZM21.1511 8.875C20.9733 8.3675 20.4756 8 19.8889 8H10.1111C9.52444 8 9.02667 8.3675 8.84889 8.875L7 14.125V21.125C7 21.3571 7.09365 21.5796 7.26035 21.7437C7.42705 21.9078 7.65314 22 7.88889 22H8.77778C9.01353 22 9.23962 21.9078 9.40632 21.7437C9.57302 21.5796 9.66667 21.3571 9.66667 21.125V20.25H20.3333V21.125C20.3333 21.3571 20.427 21.5796 20.5937 21.7437C20.7604 21.9078 20.9865 22 21.2222 22H22.1111C22.3469 22 22.573 21.9078 22.7397 21.7437C22.9064 21.5796 23 21.3571 23 21.125V14.125L21.1511 8.875Z" fill="#4B9586"/>
<path d="M10.1111 9.3125V8.3125H9.39396L9.16394 8.99177L10.1111 9.3125ZM19.8889 9.3125L20.8361 8.99177L20.606 8.3125H19.8889V9.3125ZM19.8889 17.625V18.625V17.625ZM19.8889 15V14V15ZM10.1111 17.625V18.625V17.625ZM10.1111 15V14V15ZM21.1511 8.875L20.2073 9.2056L20.2079 9.20717L21.1511 8.875ZM8.84889 8.875L9.79211 9.20717L9.79266 9.2056L8.84889 8.875ZM7 14.125L6.05678 13.7928L6 13.9541V14.125H7ZM7 21.125H6H7ZM9.66667 20.25V19.25H8.66667V20.25H9.66667ZM20.3333 20.25H21.3333V19.25H20.3333V20.25ZM23 14.125H24V13.9541L23.9432 13.7928L23 14.125ZM9.72495 13.5707L11.0583 9.63323L9.16394 8.99177L7.83061 12.9293L9.72495 13.5707ZM10.1111 10.3125H19.8889V8.3125H10.1111V10.3125ZM18.9417 9.63323L20.2751 13.5707L22.1694 12.9293L20.8361 8.99177L18.9417 9.63323ZM19.8889 16.625C19.7954 16.625 19.7089 16.5883 19.6476 16.5279L18.2446 17.9532C18.6833 18.3851 19.2751 18.625 19.8889 18.625V16.625ZM19.6476 16.5279C19.5868 16.4681 19.5556 16.3903 19.5556 16.3125H17.5556C17.5556 16.9309 17.8053 17.5208 18.2446 17.9532L19.6476 16.5279ZM19.5556 16.3125C19.5556 16.2347 19.5868 16.1569 19.6476 16.0971L18.2446 14.6718C17.8053 15.1042 17.5556 15.6941 17.5556 16.3125H19.5556ZM19.6476 16.0971C19.7089 16.0367 19.7954 16 19.8889 16V14C19.2751 14 18.6833 14.2399 18.2446 14.6718L19.6476 16.0971ZM19.8889 16C19.9823 16 20.0688 16.0367 20.1302 16.0971L21.5332 14.6718C21.0945 14.2399 20.5027 14 19.8889 14V16ZM20.1302 16.0971C20.191 16.1569 20.2222 16.2347 20.2222 16.3125H22.2222C22.2222 15.6941 21.9725 15.1042 21.5332 14.6718L20.1302 16.0971ZM20.2222 16.3125C20.2222 16.3903 20.191 16.4681 20.1302 16.5279L21.5332 17.9532C21.9725 17.5208 22.2222 16.9309 22.2222 16.3125H20.2222ZM20.1302 16.5279C20.0688 16.5883 19.9823 16.625 19.8889 16.625V18.625C20.5027 18.625 21.0945 18.3851 21.5332 17.9532L20.1302 16.5279ZM10.1111 16.625C10.0177 16.625 9.93116 16.5883 9.86982 16.5279L8.46678 17.9532C8.90554 18.3851 9.49731 18.625 10.1111 18.625V16.625ZM9.86982 16.5279C9.80901 16.4681 9.77778 16.3903 9.77778 16.3125H7.77778C7.77778 16.9309 8.0275 17.5208 8.46678 17.9532L9.86982 16.5279ZM9.77778 16.3125C9.77778 16.2347 9.80901 16.1569 9.86982 16.0971L8.46678 14.6718C8.0275 15.1042 7.77778 15.6941 7.77778 16.3125H9.77778ZM9.86982 16.0971C9.93116 16.0367 10.0177 16 10.1111 16V14C9.49731 14 8.90554 14.2399 8.46678 14.6718L9.86982 16.0971ZM10.1111 16C10.2046 16 10.2911 16.0367 10.3524 16.0971L11.7554 14.6718C11.3167 14.2399 10.7249 14 10.1111 14V16ZM10.3524 16.0971C10.4132 16.1569 10.4444 16.2347 10.4444 16.3125H12.4444C12.4444 15.6941 12.1947 15.1042 11.7554 14.6718L10.3524 16.0971ZM10.4444 16.3125C10.4444 16.3903 10.4132 16.4681 10.3524 16.5279L11.7554 17.9532C12.1947 17.5208 12.4444 16.9309 12.4444 16.3125H10.4444ZM10.3524 16.5279C10.2911 16.5883 10.2046 16.625 10.1111 16.625V18.625C10.7249 18.625 11.3167 18.3851 11.7554 17.9532L10.3524 16.5279ZM22.0949 8.5444C21.7755 7.63254 20.8968 7 19.8889 7V9C20.0543 9 20.1712 9.10246 20.2073 9.2056L22.0949 8.5444ZM19.8889 7H10.1111V9H19.8889V7ZM10.1111 7C9.10321 7 8.22454 7.63254 7.90512 8.5444L9.79266 9.2056C9.82879 9.10246 9.94567 9 10.1111 9V7ZM7.90567 8.54283L6.05678 13.7928L7.94322 14.4572L9.79211 9.20717L7.90567 8.54283ZM6 14.125V21.125H8V14.125H6ZM6 21.125C6 21.6274 6.2029 22.106 6.55883 22.4564L7.96187 21.0311C7.98441 21.0533 8 21.0867 8 21.125H6ZM6.55883 22.4564C6.91424 22.8062 7.39296 23 7.88889 23V21C7.91332 21 7.93986 21.0094 7.96187 21.0311L6.55883 22.4564ZM7.88889 23H8.77778V21H7.88889V23ZM8.77778 23C9.2737 23 9.75243 22.8062 10.1078 22.4564L8.7048 21.0311C8.72681 21.0094 8.75335 21 8.77778 21V23ZM10.1078 22.4564C10.4638 22.106 10.6667 21.6274 10.6667 21.125H8.66667C8.66667 21.0867 8.68226 21.0533 8.7048 21.0311L10.1078 22.4564ZM10.6667 21.125V20.25H8.66667V21.125H10.6667ZM9.66667 21.25H20.3333V19.25H9.66667V21.25ZM19.3333 20.25V21.125H21.3333V20.25H19.3333ZM19.3333 21.125C19.3333 21.6274 19.5362 22.106 19.8922 22.4564L21.2952 21.0311C21.3177 21.0533 21.3333 21.0867 21.3333 21.125H19.3333ZM19.8922 22.4564C20.2476 22.8062 20.7263 23 21.2222 23V21C21.2467 21 21.2732 21.0094 21.2952 21.0311L19.8922 22.4564ZM21.2222 23H22.1111V21H21.2222V23ZM22.1111 23C22.607 23 23.0858 22.8062 23.4412 22.4564L22.0381 21.0311C22.0601 21.0094 22.0867 21 22.1111 21V23ZM23.4412 22.4564C23.7971 22.106 24 21.6274 24 21.125H22C22 21.0867 22.0156 21.0533 22.0381 21.0311L23.4412 22.4564ZM24 21.125V14.125H22V21.125H24ZM23.9432 13.7928L22.0943 8.54283L20.2079 9.20717L22.0568 14.4572L23.9432 13.7928Z" fill="#4B9586" mask="url(#path-1-inside-1_7_545)"/>
</svg>
