<svg width="45" height="45" viewBox="0 0 45 45" fill="none" xmlns="http://www.w3.org/2000/svg">
<rect width="45" height="44.4" rx="22.2" fill="#4B9586"/>
<path d="M22.5 33.3C25.3643 33.3 28.1114 32.1621 30.1368 30.1368C32.1621 28.1114 33.3 25.3643 33.3 22.5C33.3 19.6357 32.1621 16.8886 30.1368 14.8632C28.1114 12.8379 25.3643 11.7 22.5 11.7C19.6357 11.7 16.8886 12.8379 14.8632 14.8632C12.8379 16.8886 11.7 19.6357 11.7 22.5C11.7 25.3643 12.8379 28.1114 14.8632 30.1368C16.8886 32.1621 19.6357 33.3 22.5 33.3ZM22.5 9C24.2728 9 26.0283 9.34919 27.6662 10.0276C29.3041 10.7061 30.7924 11.7005 32.0459 12.9541C33.2995 14.2076 34.2939 15.6959 34.9724 17.3338C35.6508 18.9717 36 20.7272 36 22.5C36 26.0804 34.5777 29.5142 32.0459 32.0459C29.5142 34.5777 26.0804 36 22.5 36C15.0345 36 9 29.925 9 22.5C9 18.9196 10.4223 15.4858 12.9541 12.9541C15.4858 10.4223 18.9196 9 22.5 9ZM23.175 15.75V22.8375L29.25 26.442L28.2375 28.1025L21.15 23.85V15.75H23.175Z" fill="white"/>
</svg>
