<svg width="45" height="45" viewBox="0 0 45 45" fill="none" xmlns="http://www.w3.org/2000/svg">
<rect width="45" height="44.4" rx="22.2" fill="#4B9586"/>
<path d="M22.25 8L10 12.0833V24.3333C10 31.0995 15.4838 36.5833 22.25 36.5833C29.0162 36.5833 34.5 31.0995 34.5 24.3333V12.0833L22.25 8ZM32.2031 24.3333C32.2031 29.8299 27.7466 34.2865 22.25 34.2865C16.7535 34.2865 12.2969 29.8299 12.2969 24.3333V13.806L22.25 10.2969L32.2031 13.806V24.3333Z" fill="white"/>
<path d="M17.988 21.1144C17.8816 21.0075 17.755 20.9227 17.6157 20.8648C17.4764 20.8069 17.327 20.7771 17.1761 20.7771C17.0252 20.7771 16.8758 20.8069 16.7365 20.8648C16.5972 20.9227 16.4707 21.0075 16.3642 21.1144C16.2573 21.2209 16.1725 21.3474 16.1146 21.4867C16.0567 21.6261 16.0269 21.7754 16.0269 21.9263C16.0269 22.0772 16.0567 22.2266 16.1146 22.3659C16.1725 22.5052 16.2573 22.6318 16.3642 22.7382L20.4922 26.8662L20.5592 26.9332C20.6599 27.0341 20.7795 27.1141 20.9111 27.1687C21.0428 27.2233 21.1839 27.2514 21.3264 27.2514C21.469 27.2514 21.6101 27.2233 21.7417 27.1687C21.8734 27.1141 21.993 27.0341 22.0937 26.9332L29.2235 19.8033C29.3244 19.7026 29.4044 19.583 29.459 19.4514C29.5137 19.3197 29.5418 19.1786 29.5418 19.0361C29.5418 18.8936 29.5137 18.7524 29.459 18.6208C29.4044 18.4891 29.3244 18.3695 29.2235 18.2689L29.1342 18.1795C29.0335 18.0787 28.9139 17.9986 28.7823 17.944C28.6506 17.8894 28.5095 17.8613 28.367 17.8613C28.2245 17.8613 28.0834 17.8894 27.9517 17.944C27.8201 17.9986 27.7005 18.0787 27.5998 18.1795L21.3248 24.4513L17.988 21.1144Z" fill="white"/>
</svg>
