<svg width="30" height="30" viewBox="0 0 30 30" fill="none" xmlns="http://www.w3.org/2000/svg">
<path d="M14.5385 25.1026C12.3554 24.5162 10.5531 23.1801 9.1315 21.0941C7.70987 19.0081 6.99937 16.6923 7 14.1467V8.01538L14.5385 5L22.0769 8.01538V14.1467C22.0769 16.693 21.3661 19.0091 19.9445 21.0951C18.5229 23.1811 16.7208 24.5169 14.5385 25.1026ZM14.5385 22.9918C16.1718 22.439 17.5224 21.3333 18.5904 19.6749C19.6583 18.0164 20.1923 16.1737 20.1923 14.1467V9.39744L14.5385 7.1359L8.88462 9.39744V14.1467C8.88462 16.1737 9.41859 18.0164 10.4865 19.6749C11.5545 21.3333 12.9051 22.439 14.5385 22.9918Z" fill="#4B9586"/>
</svg>
