<svg width="45" height="45" viewBox="0 0 45 45" fill="none" xmlns="http://www.w3.org/2000/svg">
<rect width="45" height="44.4" rx="22.2" fill="#4B9586"/>
<path d="M37.9019 22.7033C37.8233 22.9394 37.6982 23.1577 37.5337 23.3457C37.3693 23.5336 37.1689 23.6876 36.9439 23.7985L34.1084 25.2003L27.5129 31.7229C27.3959 31.8385 27.2505 31.9222 27.091 31.9658C26.9315 32.0094 26.7634 32.0113 26.6029 31.9715L18.9393 30.0772C18.8227 30.0482 18.7127 29.998 18.6148 29.9292L11.9666 25.2359L9.05922 23.7985C8.60484 23.5739 8.25927 23.1801 8.09849 22.7036C7.93771 22.2271 7.97489 21.707 8.20186 21.2577L11.1775 15.3744C11.4046 14.9251 11.8029 14.5835 12.2848 14.4245C12.7667 14.2655 13.2927 14.3023 13.7472 14.5267L16.3887 15.8291L22.7352 14.0365C22.9073 13.9878 23.0899 13.9878 23.262 14.0365L29.6084 15.8291L32.25 14.5267C32.7045 14.3023 33.2305 14.2655 33.7124 14.4245C34.1942 14.5835 34.5925 14.9251 34.8197 15.3744L37.7953 21.2577C37.9088 21.4797 37.9767 21.7218 37.995 21.9699C38.0133 22.2181 37.9816 22.4673 37.9019 22.7033ZM32.3721 24.2354L29.1139 17.7921H25.3037L20.1259 22.7649C21.6419 23.7227 24.0188 23.9867 26.1514 21.8615C26.318 21.6955 26.5408 21.5963 26.7769 21.5829C27.013 21.5696 27.2457 21.6431 27.4303 21.7893L31.5507 25.0535L32.3721 24.2354ZM9.91539 22.1042L12.0337 23.152L15.0093 17.2688L12.891 16.221L9.91539 22.1042ZM30.1844 26.395L26.8663 23.7677C24.5265 25.6621 21.5557 25.9119 19.0937 24.3597C18.8516 24.2074 18.6471 24.0032 18.4954 23.7623C18.3438 23.5213 18.2488 23.2498 18.2176 22.9677C18.1863 22.6856 18.2195 22.4001 18.3148 22.1324C18.4101 21.8647 18.565 21.6216 18.768 21.421C18.7709 21.4176 18.7741 21.4144 18.7776 21.4116L24.1493 16.26L22.9998 15.9356L16.9623 17.6418L13.6849 24.1217L19.5763 28.2834L26.5382 30.0038L30.1844 26.395ZM36.0806 22.1042L33.1085 16.221L30.9903 17.2688L33.9659 23.152L36.0806 22.1042Z" fill="white"/>
</svg>
