<svg width="30" height="30" viewBox="0 0 30 30" fill="none" xmlns="http://www.w3.org/2000/svg">
<path fill-rule="evenodd" clip-rule="evenodd" d="M14.4999 23.3765L15.1835 22.6062C15.9592 21.7179 16.6568 20.8751 17.2776 20.0734L17.79 19.3974C19.9295 16.5147 20.9999 14.2267 20.9999 12.5357C20.9999 8.92605 18.0901 6 14.4999 6C10.9098 6 8 8.92605 8 12.5357C8 14.2267 9.07032 16.5147 11.2099 19.3974L11.7223 20.0734C12.6078 21.2081 13.5343 22.3091 14.4999 23.3765Z" stroke="white" stroke-width="1.5" stroke-linecap="round" stroke-linejoin="round"/>
<path d="M14.4998 15.2081C15.9956 15.2081 17.2081 13.9956 17.2081 12.4998C17.2081 11.0041 15.9956 9.7915 14.4998 9.7915C13.0041 9.7915 11.7915 11.0041 11.7915 12.4998C11.7915 13.9956 13.0041 15.2081 14.4998 15.2081Z" stroke="white" stroke-width="1.5" stroke-linecap="round" stroke-linejoin="round"/>
</svg>
