<svg width="30" height="30" viewBox="0 0 30 30" fill="none" xmlns="http://www.w3.org/2000/svg">
<path fill-rule="evenodd" clip-rule="evenodd" d="M14.6221 25.3763L15.4236 24.4731C16.3332 23.4314 17.1513 22.4431 17.8792 21.503L18.4801 20.7103C20.989 17.3299 22.2441 14.647 22.2441 12.664C22.2441 8.43119 18.832 5 14.6221 5C10.4121 5 7 8.43119 7 12.664C7 14.647 8.2551 17.3299 10.764 20.7103L11.3649 21.503C12.4033 22.8336 13.4898 24.1247 14.6221 25.3763Z" stroke="#4B9586" stroke-width="1.5" stroke-linecap="round" stroke-linejoin="round"/>
<path d="M14.6219 15.7982C16.3759 15.7982 17.7978 14.3764 17.7978 12.6224C17.7978 10.8684 16.3759 9.44653 14.6219 9.44653C12.8679 9.44653 11.446 10.8684 11.446 12.6224C11.446 14.3764 12.8679 15.7982 14.6219 15.7982Z" stroke="#4B9586" stroke-width="1.5" stroke-linecap="round" stroke-linejoin="round"/>
</svg>
