<svg width="30" height="30" viewBox="0 0 30 30" fill="none" xmlns="http://www.w3.org/2000/svg">
<path d="M24.2857 7H5.71429C5.3192 7 5 7.325 5 7.72727V22.2727C5 22.675 5.3192 23 5.71429 23H24.2857C24.6808 23 25 22.675 25 22.2727V7.72727C25 7.325 24.6808 7 24.2857 7ZM23.3929 9.51818V21.3636H6.60714V9.51818L5.99107 9.02955L6.8683 7.88182L7.82366 8.63864H22.1786L23.1339 7.88182L24.0112 9.02955L23.3929 9.51818ZM22.1786 8.63636L15 14.3182L7.82143 8.63636L6.86607 7.87955L5.98884 9.02727L6.60491 9.51591L14.2299 15.5523C14.4492 15.7257 14.719 15.8199 14.9967 15.8199C15.2743 15.8199 15.5441 15.7257 15.7634 15.5523L23.3929 9.51818L24.0089 9.02955L23.1317 7.88182L22.1786 8.63636Z" fill="white"/>
</svg>
