<svg width="45" height="45" viewBox="0 0 45 45" fill="none" xmlns="http://www.w3.org/2000/svg">
<rect width="45" height="44.4" rx="22.2" fill="#4B9586"/>
<path d="M27 26C27 24.895 23.866 24 20 24M27 26C27 27.105 23.866 28 20 28C16.134 28 13 27.105 13 26M27 26V30.937C27 32.076 23.866 33 20 33C16.134 33 13 32.077 13 30.937V26M27 26C30.824 26 34 25.013 34 24V14M20 24C16.134 24 13 24.895 13 26M20 24C15.582 24 12 23.013 12 22V17M20 15C15.582 15 12 15.895 12 17M12 17C12 18.105 15.582 19 20 19C20 20.013 23.253 21 27.077 21C30.9 21 34 20.013 34 19M34 14C34 12.895 30.9 12 27.077 12C23.253 12 20.154 12.895 20.154 14M34 14C34 15.105 30.9 16 27.077 16C23.254 16 20.154 15.105 20.154 14M20.154 14V24.166" stroke="white" stroke-width="2"/>
</svg>
