<svg width="30" height="30" viewBox="0 0 30 30" fill="none" xmlns="http://www.w3.org/2000/svg">
<path d="M15.2835 19.2632H10.8049C10.6345 20.0938 10.1603 20.8319 9.47429 21.3344C8.78823 21.8369 7.93916 22.0679 7.09169 21.9827C6.24423 21.8975 5.45873 21.5021 4.8875 20.8732C4.31627 20.2443 4 19.4267 4 18.5789C4 17.7312 4.31627 16.9136 4.8875 16.2847C5.45873 15.6558 6.24423 15.2604 7.09169 15.1752C7.93916 15.09 8.78823 15.321 9.47429 15.8235C10.1603 16.326 10.6345 17.0641 10.8049 17.8947H11.6938C11.6976 17.9183 11.7012 17.9419 11.7045 17.9655L12.1995 17.8947V17.3947H12.1003C11.8885 16.5637 11.4541 15.8016 10.8392 15.1921M15.2835 19.2632L11.1912 14.837C10.8949 14.543 10.356 14.219 9.78064 13.9134C9.18613 13.5977 8.48972 13.2698 7.82967 12.9743C7.16847 12.6784 6.53794 12.4124 6.0731 12.2206C5.84053 12.1246 5.64909 12.047 5.5156 11.9934C5.44884 11.9666 5.39655 11.9457 5.36084 11.9315L5.31994 11.9153L5.3093 11.9111L5.30652 11.91L5.30577 11.9097L5.30556 11.9096C5.3055 11.9096 5.30546 11.9096 5.12293 12.3735L5.30552 11.9094L5.29318 11.9049C5.24703 11.8882 5.20994 11.8545 5.18911 11.8117C5.16832 11.769 5.16508 11.7201 5.17992 11.6752C5.19479 11.6303 5.22689 11.5921 5.2702 11.5695C5.3096 11.5489 5.35512 11.5429 5.39856 11.5523L5.43695 11.5673C5.47821 11.5836 5.53813 11.6074 5.61461 11.6379C5.76741 11.6989 5.98464 11.7858 6.24722 11.8913C6.77232 12.1022 7.47793 12.3865 8.21057 12.6834C9.6812 13.2792 11.2415 13.9176 11.6862 14.1187C12.0029 14.2641 12.354 14.3185 12.7001 14.276C13.0466 14.2334 13.3746 14.0951 13.6468 13.8766L13.6468 13.8766L13.6512 13.873C14.3774 13.2762 15.5361 12.9211 17.0605 12.9211H19.4442H20.1734L19.9106 12.2408L19.1174 10.1882L18.9939 9.86842H18.651H16.3731C16.3226 9.86842 16.2747 9.84844 16.2397 9.81364C16.2048 9.77891 16.1856 9.73231 16.1856 9.68421C16.1856 9.63611 16.2048 9.58951 16.2397 9.55478C16.2747 9.51998 16.3226 9.5 16.3731 9.5H19.1228L19.123 9.5C19.1614 9.49999 19.1987 9.51159 19.23 9.53298C19.2613 9.55435 19.2849 9.58439 19.2983 9.61886L19.2983 9.61896L20.4506 12.6013L20.5742 12.9211H20.917H22.56C22.6104 12.9211 22.6583 12.941 22.6933 12.9758C22.7282 13.0106 22.7474 13.0572 22.7474 13.1053C22.7474 13.1534 22.7282 13.2 22.6933 13.2347C22.6583 13.2695 22.6104 13.2895 22.56 13.2895H22.5597C22.1632 13.2897 21.7679 13.3343 21.3814 13.4226L20.8182 13.5513L21.0263 14.0902L21.5264 15.3851L21.6729 15.7644L22.0741 15.6983C22.2349 15.6718 22.3976 15.6583 22.5605 15.6579C23.268 15.6573 23.9517 15.9108 24.486 16.3712C25.0204 16.8315 25.3695 17.4678 25.4701 18.1631C25.5706 18.8583 25.4159 19.5665 25.034 20.1577C24.6521 20.749 24.0684 21.1839 23.3895 21.3819C22.7106 21.5799 21.9828 21.5276 21.3396 21.2346C20.6966 20.9417 20.1818 20.428 19.8893 19.7885C19.5968 19.149 19.5459 18.4261 19.7457 17.7524C19.9456 17.0786 20.3831 16.4986 20.9785 16.1193L21.3239 15.8993L21.1763 15.5173L20.6762 14.2233L20.469 13.6872L19.9668 13.9666C19.3567 14.3059 18.8197 14.7619 18.3867 15.3084C17.954 15.8545 17.6337 16.4804 17.4442 17.1501C17.3097 17.615 17.0266 18.0242 16.6373 18.3154C16.2476 18.6069 15.7727 18.7642 15.2846 18.7632H15.2835H10.8049H10.397L10.3151 19.1627C10.1697 19.8714 9.76508 20.5017 9.17885 20.931C8.59256 21.3604 7.86658 21.5581 7.14171 21.4852C6.41687 21.4123 5.74552 21.0742 5.25761 20.537C4.76977 19.9999 4.5 19.3021 4.5 18.5789C4.5 17.8558 4.76977 17.1579 5.25761 16.6209C5.74552 16.0837 6.41687 15.7456 7.14171 15.6727C7.86658 15.5998 8.59256 15.7975 9.17885 16.2269C9.76508 16.6562 10.1697 17.2865 10.3151 17.9952L10.397 18.3947H10.8049H12.1995H12.7761L12.6945 17.824C12.5326 16.692 12.0048 15.6436 11.1915 14.8372L10.8392 15.1921M15.2835 19.2632C15.8797 19.2645 16.4601 19.0723 16.9368 18.7158M15.2835 19.2632L16.9368 18.7158M10.8392 15.1921C9.89145 14.2513 5.12239 12.3749 5.12239 12.3749L10.8392 15.1921ZM16.9368 18.7158C17.4134 18.3593 17.7603 17.8579 17.9249 17.2875L16.9368 18.7158ZM5.37754 11.5442C5.37741 11.5441 5.37879 11.5446 5.38206 11.5459C5.3793 11.5449 5.37766 11.5443 5.37754 11.5442ZM9.85133 19.4305L10.0884 18.7632H9.38017H7.43646C7.38599 18.7632 7.33806 18.7432 7.30309 18.7084C7.2682 18.6736 7.24903 18.627 7.24903 18.5789C7.24903 18.5308 7.2682 18.4842 7.30309 18.4495L6.95037 18.0951L7.30309 18.4495C7.33806 18.4147 7.38599 18.3947 7.43646 18.3947H9.38017H10.0884L9.85133 17.7274C9.64952 17.1593 9.25264 16.681 8.73141 16.3767C8.21024 16.0724 7.59805 15.9614 7.00292 16.063C6.40776 16.1646 5.86739 16.4725 5.47754 16.9328C5.08765 17.3931 4.87352 17.9761 4.87352 18.5789C4.87352 19.1817 5.08765 19.7648 5.47754 20.2251C5.86739 20.6854 6.40776 20.9932 7.00291 21.0949C7.59805 21.1965 8.21024 21.0855 8.73141 20.7812C9.25264 20.4769 9.64952 19.9986 9.85133 19.4305ZM22.5593 21.1316H22.56C23.2388 21.1316 23.8902 20.8632 24.3709 20.3848C24.8517 19.9062 25.1222 19.2567 25.1222 18.5789C25.1222 17.9012 24.8517 17.2517 24.3709 16.7731C23.8902 16.2947 23.2388 16.0263 22.56 16.0263H22.5041H21.7751L22.0377 16.7064L22.7354 18.5135C22.7528 18.5587 22.7515 18.6088 22.7317 18.6531C22.7119 18.6975 22.6748 18.7329 22.628 18.7508C22.581 18.7688 22.5288 18.7674 22.4829 18.7471C22.4371 18.7268 22.402 18.6896 22.3845 18.6443L22.3845 18.6443L21.6876 16.8397L21.4336 16.1818L20.8969 16.6393C20.4992 16.9782 20.215 17.4304 20.083 17.9354C19.9509 18.4405 19.9774 18.9737 20.1589 19.4632C20.3403 19.9527 20.6679 20.3747 21.097 20.6729C21.5262 20.9709 22.0365 21.1309 22.5593 21.1316Z" fill="#4B9586" stroke="#4B9586"/>
</svg>
