<svg width="30" height="30" viewBox="0 0 30 30" fill="none" xmlns="http://www.w3.org/2000/svg">
<circle cx="15" cy="15" r="15" fill="#4B9586"/>
<path d="M22.0667 23C20.2148 23 18.3852 22.5964 16.5778 21.7893C14.7704 20.9822 13.1259 19.8376 11.6444 18.3556C10.163 16.8741 9.01867 15.2296 8.21156 13.4222C7.40444 11.6148 7.00059 9.78519 7 7.93333C7 7.66667 7.08889 7.44444 7.26667 7.26667C7.44444 7.08889 7.66667 7 7.93333 7H11.5333C11.7407 7 11.9259 7.07052 12.0889 7.21156C12.2519 7.35259 12.3481 7.51911 12.3778 7.71111L12.9556 10.8222C12.9852 11.0593 12.9778 11.2593 12.9333 11.4222C12.8889 11.5852 12.8074 11.7259 12.6889 11.8444L10.5333 14.0222C10.8296 14.5704 11.1813 15.0999 11.5884 15.6107C11.9956 16.1215 12.4439 16.6142 12.9333 17.0889C13.3926 17.5481 13.8741 17.9742 14.3778 18.3671C14.8815 18.76 15.4148 19.1191 15.9778 19.4444L18.0667 17.3556C18.2 17.2222 18.3742 17.1224 18.5893 17.056C18.8044 16.9896 19.0154 16.971 19.2222 17L22.2889 17.6222C22.4963 17.6815 22.6667 17.789 22.8 17.9449C22.9333 18.1007 23 18.2747 23 18.4667V22.0667C23 22.3333 22.9111 22.5556 22.7333 22.7333C22.5556 22.9111 22.3333 23 22.0667 23Z" fill="#EDFCF4"/>
</svg>
