<svg width="30" height="30" viewBox="0 0 30 30" fill="none" xmlns="http://www.w3.org/2000/svg">
<path d="M23.2282 18.3335L18.8897 16.3892C18.6932 16.305 18.4787 16.2711 18.2657 16.2907C18.0528 16.3102 17.848 16.3826 17.6701 16.5012C17.652 16.5128 17.6348 16.5257 17.6187 16.5398L15.3511 18.4685C15.3276 18.4813 15.3014 18.4885 15.2746 18.4894C15.2479 18.4904 15.2212 18.4851 15.1968 18.474C13.7394 17.7705 12.2295 16.2698 11.5233 14.8325C11.5115 14.8085 11.5054 14.7821 11.5054 14.7554C11.5054 14.7286 11.5115 14.7022 11.5233 14.6782L13.4583 12.3822C13.4722 12.3652 13.4851 12.3474 13.4969 12.329C13.6139 12.1503 13.6846 11.9454 13.7025 11.7326C13.7205 11.5198 13.6852 11.3059 13.5998 11.1102L11.6693 6.77906C11.5597 6.52338 11.3701 6.31016 11.129 6.17139C10.8878 6.03262 10.6082 5.9758 10.3321 6.00944C9.13195 6.16722 8.03033 6.75659 7.23307 7.66743C6.43582 8.57826 5.99749 9.74823 6.00001 10.9587C6.00001 18.1498 11.8502 24 19.0413 24C20.2517 24.0023 21.4215 23.5639 22.3323 22.7667C23.2431 21.9695 23.8325 20.868 23.9905 19.6679C24.0241 19.393 23.968 19.1147 23.8307 18.8743C23.6933 18.6338 23.482 18.4442 23.2282 18.3335ZM19.0413 22.8979C12.4582 22.8979 7.10209 17.5418 7.10209 10.9587C7.09902 10.0164 7.43914 9.10513 8.05892 8.39527C8.67869 7.68541 9.53571 7.22548 10.4699 7.10142H10.491C10.528 7.10211 10.5639 7.11396 10.5941 7.13543C10.6242 7.1569 10.6472 7.18698 10.66 7.22173L12.5978 11.5483C12.6088 11.5724 12.6146 11.5985 12.6146 11.625C12.6146 11.6515 12.6088 11.6776 12.5978 11.7017L10.659 14.0032C10.6446 14.0196 10.6314 14.0371 10.6196 14.0555C10.4982 14.2407 10.4268 14.4541 10.4122 14.6751C10.3975 14.896 10.4402 15.1169 10.536 15.3165C11.3506 16.9843 13.0313 18.6521 14.7174 19.4668C14.9182 19.562 15.1402 19.6037 15.3619 19.5876C15.5835 19.5715 15.7972 19.4982 15.9821 19.3749C15.9995 19.363 16.017 19.3501 16.0335 19.3364L18.3001 17.4077C18.3225 17.3957 18.3472 17.3886 18.3726 17.387C18.3979 17.3855 18.4234 17.3894 18.4471 17.3985L22.7865 19.3428C22.8219 19.3579 22.8517 19.3837 22.8717 19.4167C22.8916 19.4497 22.9007 19.4881 22.8976 19.5265C22.7742 20.461 22.3147 21.3187 21.605 21.9392C20.8953 22.5596 19.9839 22.9004 19.0413 22.8979Z" fill="white"/>
</svg>
