<svg width="45" height="45" viewBox="0 0 45 45" fill="none" xmlns="http://www.w3.org/2000/svg">
<rect width="45" height="44.4" rx="22.2" fill="#4B9586"/>
<path d="M33.5417 34.9999C30.5556 34.9999 27.6449 34.3402 24.8097 33.0207C21.9745 31.7013 19.463 29.9421 17.275 27.743C15.087 25.5439 13.3278 23.0263 11.9972 20.1902C10.6667 17.3541 10.0009 14.4435 10 11.4583V10.7292C10 10.4745 10.0231 10.2315 10.0694 10H18.1944L19.4792 16.9791L15.5208 20.9722C16.4931 22.6388 17.7144 24.2013 19.1847 25.6597C20.6551 27.118 22.2694 28.3796 24.0278 29.4444L28.0556 25.4166L35 26.8055V34.9305C34.7685 34.9536 34.5255 34.9712 34.2708 34.9832C34.0162 34.9953 33.7731 35.0008 33.5417 34.9999Z" fill="white"/>
</svg>
