<svg width="30" height="30" viewBox="0 0 30 30" fill="none" xmlns="http://www.w3.org/2000/svg">
<path d="M15.184 6.675V8.25H16.9875C17.3081 8.25 17.6213 8.3454 17.8861 8.5227L19.4357 9.5613C19.4732 9.5865 19.5179 9.6 19.5636 9.6H23.3094C23.491 9.6 23.6652 9.67112 23.7937 9.7977C23.9221 9.92429 23.9943 10.096 23.9943 10.275C23.9943 10.454 23.9221 10.6257 23.7937 10.7523C23.6652 10.8789 23.491 10.95 23.3094 10.95H21.8684L24.9421 17.862C25.0038 18.0002 25.0166 18.1548 24.9785 18.301C24.9404 18.4472 24.8537 18.5766 24.7321 18.6684C24.6408 18.735 24.5467 18.7971 24.449 18.8538C24.2174 18.99 23.9763 19.11 23.7276 19.2129C22.9016 19.5533 22.0149 19.7275 21.1196 19.725C20.2247 19.7278 19.3382 19.554 18.5125 19.2138C18.2637 19.1109 18.0226 18.9906 17.7911 18.8538C17.6942 18.7985 17.6006 18.7378 17.5108 18.672L17.5062 18.6684C17.3847 18.5766 17.2979 18.4472 17.2598 18.301C17.2217 18.1548 17.2345 18.0002 17.2962 17.862L20.3717 10.95H19.5627C19.2421 10.95 18.9289 10.8546 18.6641 10.6773L17.1145 9.6387C17.0768 9.61331 17.0322 9.59981 16.9866 9.6H15.184V22.65H19.2814C19.4631 22.65 19.6373 22.7211 19.7657 22.8477C19.8941 22.9743 19.9663 23.146 19.9663 23.325C19.9663 23.504 19.8941 23.6757 19.7657 23.8023C19.6373 23.9289 19.4631 24 19.2814 24H9.71692C9.53528 24 9.36108 23.9289 9.23264 23.8023C9.1042 23.6757 9.03204 23.504 9.03204 23.325C9.03204 23.146 9.1042 22.9743 9.23264 22.8477C9.36108 22.7211 9.53528 22.65 9.71692 22.65H13.8143V9.6H12.0108C11.9652 9.59998 11.9207 9.61346 11.8829 9.6387L10.3342 10.6773C10.0694 10.8546 9.75618 10.95 9.43566 10.95H8.6266L11.7021 17.862C11.7617 17.9963 11.7752 18.146 11.7408 18.2886C11.7064 18.4311 11.6258 18.5588 11.5113 18.6522C11.4382 18.7107 11.3652 18.7656 11.2282 18.8529C10.9973 19.0003 10.7555 19.1306 10.505 19.2426C9.68022 19.6119 8.78458 19.8022 7.87871 19.8006C6.97281 19.8025 6.0771 19.6122 5.25245 19.2426C5.0019 19.1306 4.76016 19.0003 4.52922 18.8529C4.43156 18.7917 4.33737 18.7253 4.24705 18.654C4.13343 18.5595 4.05351 18.4316 4.01901 18.2891C3.9845 18.1466 3.99721 17.9969 4.05529 17.862L7.12992 10.95H5.68985C5.50821 10.95 5.33401 10.8789 5.20557 10.7523C5.07714 10.6257 5.00498 10.454 5.00498 10.275C5.00498 10.096 5.07714 9.92429 5.20557 9.7977C5.33401 9.67112 5.50821 9.6 5.68985 9.6H9.43566C9.48132 9.6 9.52606 9.5865 9.56442 9.5613L11.1122 8.5227C11.3771 8.3445 11.6912 8.25 12.0117 8.25H13.8143V6.675C13.8143 6.49598 13.8864 6.32429 14.0149 6.1977C14.1433 6.07112 14.3175 6 14.4992 6C14.6808 6 14.855 6.07112 14.9834 6.1977C15.1119 6.32429 15.184 6.49598 15.184 6.675ZM5.54375 17.8782C6.26245 18.2553 7.06452 18.4516 7.87871 18.4497C8.69291 18.4516 9.49498 18.2553 10.2137 17.8782L7.87871 12.6312L5.54375 17.8782ZM18.7938 17.8566C18.8687 17.8926 18.9527 17.9313 19.0449 17.97C19.5289 18.1707 20.2366 18.375 21.1196 18.375C21.9246 18.3772 22.7197 18.2 23.4455 17.8566L21.1196 12.6303L18.7938 17.8566Z" fill="#4B9586"/>
</svg>
