<svg width="30" height="30" viewBox="0 0 30 30" fill="none" xmlns="http://www.w3.org/2000/svg">
<path d="M9.69122 19.5361C9.69122 17.505 11.342 15.8542 13.373 15.8542C15.4041 15.8542 17.0549 17.505 17.0549 19.5361C17.0549 21.5671 15.4041 23.2179 13.373 23.2179C11.342 23.2179 9.69122 21.5671 9.69122 19.5361ZM9.84483 19.5361C9.84483 21.4705 11.4386 23.0643 13.373 23.0643C15.3075 23.0643 16.9013 21.4705 16.9013 19.5361C16.9013 17.6016 15.3075 16.0079 13.373 16.0079C11.4386 16.0079 9.84483 17.6016 9.84483 19.5361Z" fill="#4B9586" stroke="#4B9586"/>
<path d="M13.152 19.3149H13.594V19.7569H13.152V19.3149Z" fill="#4B9586" stroke="#4B9586"/>
<path d="M4.94201 17.4451V17.4678L4.94406 17.4904C5.03578 18.4993 5.79241 19.315 6.81191 19.315H7.10502V19.7571H6.81191C5.50185 19.7571 4.5 18.7552 4.5 17.4451V8.5H26.3511C26.4038 8.5 26.4315 8.50871 26.4427 8.51336C26.4523 8.51737 26.4555 8.52061 26.4581 8.52367C26.4648 8.53139 26.5 8.58141 26.5 8.721C26.5 8.82368 26.468 8.87039 26.4482 8.89018C26.4284 8.90996 26.3817 8.94201 26.279 8.94201H22.674H22.174V9.44201V17.4451C22.174 18.7637 21.1637 19.7571 19.9342 19.7571H19.6411V19.315H19.9342H19.9568L19.9794 19.313C20.9883 19.2213 21.8041 18.4646 21.8041 17.4451V12.326V11.826H21.3041H5.44201H4.94201V12.326V17.4451ZM21.3041 11.384H21.8041V10.884V9.44201V8.94201H21.3041H5.44201H4.94201V9.44201V10.884V11.384H5.44201H21.3041Z" fill="#4B9586" stroke="#4B9586"/>
</svg>
