<?xml version="1.0" standalone="no"?>
<!DOCTYPE svg PUBLIC "-//W3C//DTD SVG 20010904//EN"
 "http://www.w3.org/TR/2001/REC-SVG-20010904/DTD/svg10.dtd">
<svg version="1.0" xmlns="http://www.w3.org/2000/svg"
 width="4167.000000pt" height="4167.000000pt" viewBox="0 0 4167.000000 4167.000000"
 preserveAspectRatio="xMidYMid meet">
<metadata>
Created by potrace 1.14, written by Peter Selinger 2001-2017
</metadata>
<g transform="translate(0.000000,4167.000000) scale(0.100000,-0.100000)"
fill="#000000" stroke="none">
<path d="M20905 37589 c-735 -20 -999 -53 -1359 -166 -457 -144 -705 -290
-1476 -867 -184 -137 -342 -250 -350 -250 -8 1 -42 9 -75 18 -75 20 -222 21
-300 1 -130 -34 -219 -90 -263 -164 -23 -39 -27 -57 -27 -121 1 -41 10 -118
22 -170 12 -52 25 -109 28 -125 l6 -30 -383 -63 c-512 -85 -629 -107 -766
-147 -447 -128 -798 -395 -948 -720 -36 -79 -77 -216 -72 -242 2 -11 69 55
200 198 336 365 460 456 648 475 130 14 272 -43 394 -157 42 -39 124 -132 182
-206 58 -74 108 -133 110 -131 1 2 -33 136 -77 297 -44 162 -78 295 -77 296 3
3 390 35 1493 125 378 31 587 44 975 60 129 5 339 21 465 36 182 21 276 27
450 27 121 0 231 -4 243 -9 23 -10 7 -31 -338 -475 -199 -255 -371 -467 -381
-471 -65 -25 -712 -120 -1614 -238 -341 -45 -627 -86 -635 -91 -10 -7 1 -8 35
-4 110 12 540 25 1100 35 663 11 941 18 1063 27 l84 6 26 61 c118 279 317 563
510 732 170 148 378 268 577 332 227 74 744 121 1030 93 155 -15 339 -52 451
-92 49 -17 177 -73 284 -124 311 -149 435 -204 438 -194 7 17 -115 173 -285
367 l-53 60 73 27 c77 29 375 96 1107 249 912 191 1440 273 2065 321 739 58
1633 23 2085 -80 115 -26 268 -70 277 -79 17 -17 -82 -230 -151 -324 -101
-137 -300 -239 -569 -292 -32 -7 -56 -14 -54 -17 8 -7 223 -20 642 -38 l370
-16 22 -27 22 -26 -20 -31 c-11 -16 -43 -67 -71 -111 l-52 -81 -1066 -7 c-694
-5 -1142 -3 -1285 4 -604 28 -777 24 -1075 -26 -404 -68 -742 -197 -1141 -436
-221 -133 -381 -219 -734 -396 -154 -77 -289 -148 -300 -157 -19 -15 -16 -16
45 -10 215 21 1120 248 1715 430 409 125 710 189 1095 230 258 27 522 35 1185
35 1142 0 3155 13 3155 20 0 7 -256 187 -537 379 -76 51 -192 125 -258 164
-248 146 -323 231 -379 433 -85 305 -210 549 -307 599 -17 9 -81 19 -156 25
-240 18 -1142 55 -1150 47 -2 -3 8 -12 24 -21 26 -14 12 -15 -187 -15 -370 -1
-431 7 -1061 139 l-427 90 -200 0 -200 0 18 -61 19 -61 -22 5 c-12 3 -141 24
-287 47 -179 28 -354 64 -540 110 -151 37 -320 76 -375 85 -204 35 -458 141
-665 276 -52 34 -164 99 -249 143 -84 45 -154 86 -154 91 -1 6 20 15 46 20 26
6 47 14 48 19 2 14 -175 122 -237 146 -43 16 -79 20 -164 20 -61 0 -141 7
-182 16 -40 8 -104 17 -143 18 -38 2 -92 8 -120 15 -27 6 -99 14 -160 18
l-110 8 -28 53 -28 52 -107 -2 c-59 0 -237 -5 -397 -9z m-285 -237 c528 -95
784 -372 835 -902 l6 -66 -203 -38 c-445 -84 -684 -126 -903 -160 -290 -44
-826 -118 -830 -114 -3 3 544 950 580 1004 14 22 79 36 230 49 149 13 322 -28
440 -105 103 -67 242 -229 309 -359 l18 -33 -34 -35 c-47 -50 -105 -76 -266
-122 -145 -42 -234 -80 -287 -125 -27 -22 -28 -25 -10 -26 29 0 808 110 814
115 7 8 -39 166 -80 270 -58 149 -120 248 -213 340 -96 95 -178 145 -301 185
-135 43 -274 60 -487 60 -372 0 -643 -61 -1008 -227 -159 -72 -326 -129 -352
-121 -20 7 127 105 246 165 272 137 551 225 831 262 39 5 178 8 310 7 190 -3
264 -8 355 -24z m-810 -257 c0 -11 -95 -195 -153 -295 -33 -58 -138 -226 -232
-375 -95 -148 -189 -300 -211 -336 l-39 -67 -140 -22 c-77 -12 -255 -41 -395
-65 -342 -59 -641 -102 -835 -118 -88 -8 -161 -14 -162 -13 -1 1 167 188 375
415 l376 414 19 -25 18 -25 119 32 c128 35 168 53 385 169 247 133 463 220
700 281 124 33 175 41 175 30z"/>
<path d="M24715 35883 c-496 -41 -1180 -161 -1565 -274 -108 -31 -212 -76
-217 -94 -2 -6 42 -64 98 -129 l101 -119 82 6 c44 3 612 25 1261 48 649 23
1186 43 1194 45 8 3 12 6 9 9 -2 2 -73 23 -158 45 -284 74 -368 135 -544 388
l-58 82 -81 -2 c-45 -1 -100 -3 -122 -5z"/>
<path d="M20395 35255 c-339 -63 -633 -336 -823 -763 -61 -137 -108 -199 -178
-232 -52 -26 -143 -32 -704 -50 -190 -6 -673 -24 -1075 -40 -401 -17 -774 -30
-827 -30 -54 0 -98 -2 -98 -4 0 -2 15 -37 34 -78 77 -168 114 -334 123 -539
l6 -137 211 -6 c357 -10 1530 -31 1731 -31 l190 0 36 75 c20 41 35 77 34 78
-2 2 -272 16 -599 31 -328 16 -598 30 -601 33 -3 3 48 8 112 11 65 4 343 20
618 37 275 16 571 32 658 36 l157 7 0 -29 c1 -16 7 -157 14 -314 8 -157 13
-285 13 -286 -1 0 -578 74 -1282 166 -704 92 -1283 164 -1287 161 -4 -3 -14
-61 -22 -128 -15 -116 -57 -299 -90 -390 l-15 -43 40 0 c49 0 991 -209 2599
-576 395 -90 420 -97 515 -145 104 -53 431 -178 538 -206 56 -14 258 -17 1942
-23 2320 -9 5719 -10 5839 -1 l89 6 -329 310 c-181 170 -330 312 -332 316 -1
3 41 16 95 29 54 12 159 36 233 54 l134 31 67 95 c37 52 65 98 63 101 -2 4
-64 15 -139 25 -74 10 -135 20 -135 24 0 3 150 39 332 78 183 40 336 76 340
80 3 4 72 155 152 337 l146 330 -30 210 c-17 115 -43 269 -57 340 -34 162 -34
185 1 263 16 34 26 65 22 69 -3 3 -511 1 -1128 -6 -618 -6 -1256 -11 -1418
-10 -457 2 -649 -28 -1380 -216 -157 -40 -364 -92 -460 -115 -231 -55 -482
-139 -890 -298 -184 -72 -418 -160 -520 -197 -324 -116 -425 -178 -476 -289
-33 -74 -44 -158 -44 -357 l0 -176 -37 -12 c-21 -7 -81 -15 -133 -18 -84 -5
-102 -3 -148 17 -60 26 -105 73 -138 145 -24 51 -33 87 -104 378 -115 472
-312 939 -528 1252 -127 183 -307 378 -434 468 -190 136 -416 191 -623 152z
m171 -404 c130 -25 240 -92 315 -191 45 -59 95 -160 104 -208 2 -16 55 -177
116 -358 61 -181 113 -340 115 -354 3 -14 11 -56 19 -95 54 -269 46 -555 -22
-765 -33 -103 -102 -239 -170 -335 -31 -44 -58 -90 -59 -102 -4 -35 -50 -130
-84 -173 -42 -53 -112 -97 -193 -121 -55 -17 -88 -20 -181 -18 -110 4 -115 5
-201 48 -155 77 -262 202 -385 449 -300 607 -293 1282 21 1893 134 260 350
378 605 330z m8154 -577 c0 -3 -18 -65 -40 -137 -21 -73 -50 -176 -64 -229
-40 -156 -84 -220 -182 -265 -60 -27 -88 -30 -439 -43 -148 -6 -396 -20 -550
-31 -691 -49 -732 -56 -876 -150 -223 -146 -419 -211 -728 -239 -71 -6 -389
-13 -730 -15 -366 -2 -652 -8 -721 -15 -365 -37 -660 -120 -965 -270 -128 -62
-238 -101 -252 -87 -12 13 -34 320 -30 422 6 165 42 241 146 317 64 46 458
242 636 317 353 147 771 258 1175 310 270 36 373 41 935 51 303 5 620 11 705
15 85 3 412 14 725 25 314 11 599 22 635 23 127 6 620 7 620 1z"/>
<path d="M20584 34631 c-76 -66 -239 -245 -239 -263 0 -12 398 -308 415 -308
12 0 37 85 51 170 18 111 -9 259 -64 350 -27 45 -78 110 -87 110 -3 0 -37 -27
-76 -59z"/>
<path d="M20225 34566 c-260 -283 -385 -582 -385 -916 0 -218 58 -445 173
-671 58 -117 166 -294 173 -287 2 2 -8 35 -22 73 -106 289 -151 563 -141 865
11 331 82 613 222 890 35 68 62 126 61 128 -2 2 -39 -35 -81 -82z"/>
<path d="M20180 34119 c-23 -85 -53 -252 -64 -352 l-6 -57 182 2 182 3 18 73
19 74 -58 66 c-178 203 -236 267 -243 270 -4 2 -18 -34 -30 -79z"/>
<path d="M20950 33894 c-125 -33 -220 -98 -263 -178 -34 -63 -31 -191 5 -269
51 -109 188 -223 289 -242 43 -8 42 -10 60 135 18 148 -1 535 -28 560 -4 5
-33 1 -63 -6z"/>
<path d="M20110 33443 c0 -89 84 -481 108 -505 8 -8 342 394 342 412 0 13 -99
57 -181 79 -64 18 -235 51 -260 51 -5 0 -9 -17 -9 -37z"/>
<path d="M20680 33024 c-52 -36 -161 -115 -242 -176 l-147 -110 24 -48 c53
-104 181 -228 300 -290 l46 -25 25 30 c38 46 92 164 113 246 27 107 35 212 22
317 -13 103 -18 122 -35 122 -6 -1 -54 -30 -106 -66z"/>
<path d="M19953 32624 c29 -57 133 -189 190 -240 81 -75 135 -98 233 -102 82
-4 194 12 194 28 0 4 -19 11 -42 15 -182 30 -445 166 -548 282 -35 39 -40 42
-27 17z"/>
<path d="M25246 34049 c-306 -20 -501 -75 -812 -229 -220 -110 -304 -171 -343
-253 -20 -41 -20 -47 -7 -91 21 -70 60 -119 119 -152 49 -27 59 -29 167 -29
63 0 241 6 395 13 154 7 460 19 680 26 366 12 404 14 446 33 25 11 58 36 72
54 26 35 57 116 57 148 0 40 41 176 99 325 34 87 61 160 61 162 0 7 -805 1
-934 -7z m153 -261 c-10 -35 -28 -99 -39 -144 -33 -126 -44 -138 -131 -153
-216 -37 -509 -19 -556 35 -44 48 -19 179 44 236 51 46 164 65 468 77 105 4
200 9 211 9 l22 2 -19 -62z"/>
<path d="M16372 34338 c22 -71 36 -297 21 -336 -9 -23 -11 -22 -54 34 -73 96
-173 164 -239 164 -109 0 -117 -282 -17 -548 72 -192 200 -318 287 -282 54 22
78 84 94 240 l11 105 49 -78 c62 -99 111 -212 127 -293 7 -35 16 -64 21 -64 4
0 15 26 25 58 28 92 22 281 -15 458 -42 196 -89 307 -190 449 -45 63 -124 155
-133 155 -4 0 2 -28 13 -62z"/>
<path d="M13066 33194 c-106 -26 -185 -71 -267 -153 -144 -145 -199 -329 -154
-520 51 -213 224 -381 440 -426 105 -22 2225 -22 2330 0 222 47 393 219 441
445 61 290 -139 593 -435 656 -98 21 -2268 19 -2355 -2z"/>
<path d="M9196 30711 l-1279 -1909 -161 -32 c-1480 -293 -2985 -648 -4586
-1081 -371 -101 -467 -130 -610 -186 -549 -216 -986 -595 -1217 -1058 -174
-348 -244 -759 -198 -1165 51 -463 199 -730 489 -886 33 -19 59 -34 56 -34 -3
-1 -104 -31 -225 -68 l-220 -67 -3 -942 -2 -943 77 -38 c43 -22 807 -384 1698
-805 l1620 -767 50 16 c408 125 1265 369 1785 509 157 42 286 78 288 80 2 1
-84 135 -191 297 l-194 294 306 612 c290 579 305 612 281 612 -14 0 -659 -61
-1435 -134 -775 -74 -1411 -133 -1412 -132 -4 3 3120 756 3352 807 326 73 984
209 1370 284 3196 621 6381 989 9660 1115 786 30 1125 35 2340 35 1262 0 1528
-4 2455 -40 3288 -128 6578 -518 9810 -1164 869 -174 1131 -233 2470 -556 696
-168 1428 -345 1627 -392 199 -48 361 -88 360 -89 -1 -2 -639 58 -1417 132
-778 73 -1425 134 -1437 134 -21 0 8 -62 283 -613 l306 -612 -192 -293 c-106
-161 -190 -295 -188 -298 3 -3 153 -45 334 -93 578 -156 1493 -418 1797 -514
l78 -25 1702 798 1702 799 3 2400 2 2399 -32 11 c-211 67 -1055 314 -1563 456
-1677 470 -3201 837 -4875 1175 -168 34 -308 65 -312 68 -4 4 -580 862 -1281
1907 l-1275 1900 -1122 3 -1121 2 -32 -24 c-51 -39 -155 -83 -230 -97 l-68
-13 -55 -79 c-30 -43 -54 -81 -54 -85 0 -3 42 -49 94 -101 159 -162 196 -277
164 -506 -3 -20 4 -20 965 -25 l969 -5 885 -1319 c486 -725 883 -1319 881
-1321 -2 -1 -91 13 -198 32 -107 18 -229 38 -270 43 -41 4 -235 31 -430 60
-2050 295 -4691 595 -6725 764 -679 57 -1774 134 -1930 137 -56 1 -58 2 -23
10 44 10 411 44 633 59 795 51 2010 38 3245 -35 1379 -82 3404 -281 4783 -471
l48 -7 -351 524 c-194 288 -445 662 -558 832 l-205 307 -9655 -2 -9654 -3
-554 -825 c-304 -453 -551 -826 -550 -828 2 -2 127 13 278 32 1794 234 3715
409 5223 476 965 43 1946 41 2630 -5 248 -17 525 -43 569 -54 18 -4 -57 -12
-190 -19 -2217 -126 -5560 -477 -8454 -887 -314 -45 -399 -60 -415 -74 -16
-15 -45 -20 -150 -26 -71 -3 -184 -15 -250 -24 -66 -10 -120 -18 -121 -17 -1
1 398 596 885 1323 l886 1322 883 0 c485 1 882 4 882 9 0 4 -24 19 -53 35
-124 65 -272 202 -355 327 -90 136 -156 312 -167 448 -4 37 -8 77 -11 90 l-4
22 -833 -1 -832 0 -1279 -1908z m11334 -3049 l0 -1699 -242 -6 c-133 -4 -277
-7 -320 -7 l-78 0 0 1705 0 1705 320 0 320 0 0 -1698z m-1170 1470 l0 -218
-207 -149 c-347 -248 -915 -662 -1338 -974 -726 -535 -1927 -1440 -1941 -1463
-4 -6 12 -8 47 -4 123 14 988 67 1569 96 489 24 1683 69 1853 70 16 0 17 -20
17 -275 l0 -275 -67 0 c-38 0 -201 -5 -363 -10 -1360 -45 -2558 -113 -3779
-215 -228 -19 -416 -35 -418 -35 -1 0 -3 97 -3 215 l0 215 118 93 c675 535
2085 1610 3010 2296 l353 261 -73 0 c-355 0 -2189 -117 -3150 -200 -126 -11
-235 -20 -243 -20 -13 0 -15 37 -15 273 l0 273 268 23 c1433 121 2703 192
4310 239 l52 2 0 -218z m4287 174 c17 -15 2199 -3416 2265 -3531 5 -9 -647 29
-707 40 -13 3 -42 41 -80 102 -78 129 -1268 2032 -1516 2425 -151 241 -196
305 -205 295 -15 -15 -790 -1170 -1369 -2039 l-430 -645 -355 5 c-195 2 -356
6 -358 7 -7 6 2081 3081 2246 3309 l35 48 236 -7 c130 -4 237 -8 238 -9z
m3181 -211 l62 -7 0 -1448 c0 -797 3 -1451 8 -1454 4 -2 109 -14 232 -26 715
-68 2373 -256 2523 -286 l27 -6 0 -249 0 -250 -32 6 c-51 8 -799 100 -1138
139 -617 71 -1405 151 -1935 196 -132 11 -261 23 -287 26 l-48 6 0 1702 0
1702 263 -22 c144 -12 290 -25 325 -29z m-12568 -305 c0 -149 -4 -250 -9 -250
-29 0 -833 -88 -1236 -136 -432 -50 -1076 -133 -1470 -187 l-160 -22 -3 -428
c-1 -235 2 -427 6 -427 5 0 141 18 303 40 503 70 1211 157 1779 219 300 33
566 63 593 66 l47 6 0 -250 0 -250 -42 -5 c-24 -3 -191 -22 -373 -41 -623 -67
-1486 -173 -2118 -261 l-197 -27 0 -523 c0 -361 3 -524 11 -524 5 0 139 18
297 39 732 101 2428 301 2547 301 l25 0 0 -248 0 -248 -172 -18 c-504 -51
-1241 -136 -1863 -216 -410 -53 -1438 -197 -1467 -206 -17 -5 -18 81 -18 1700
l0 1704 28 6 c108 22 1270 181 1835 251 548 67 1550 181 1630 184 l27 1 0
-250z m16197 -120 c153 -22 293 -43 311 -46 l32 -6 0 -1705 c0 -1360 -3 -1704
-12 -1701 -7 3 -151 25 -320 49 l-308 44 0 1702 c0 1063 4 1703 9 1703 6 0
135 -18 288 -40z m-20739 -311 c229 -34 408 -152 493 -324 64 -129 69 -171 69
-580 0 -424 -8 -483 -84 -640 -109 -224 -309 -394 -602 -509 -137 -54 -245
-79 -664 -156 -496 -91 -966 -181 -1457 -281 -216 -43 -395 -79 -398 -79 -3 0
-6 -284 -7 -632 l-3 -631 -295 -63 c-162 -35 -305 -66 -317 -69 l-23 -5 0
1704 0 1704 23 5 c288 71 1674 348 2467 493 456 84 588 94 798 63z m22609 10
c287 -39 1684 -310 2581 -501 l432 -92 0 -248 c0 -194 -3 -248 -13 -248 -7 0
-179 36 -382 79 -1060 228 -2492 501 -2624 501 -135 0 -231 -53 -268 -148 -15
-39 -18 -77 -18 -222 0 -172 1 -176 29 -237 46 -101 137 -173 271 -216 28 -9
223 -48 435 -87 834 -154 1701 -326 1841 -366 497 -142 814 -431 893 -816 13
-61 16 -145 16 -411 0 -297 -2 -342 -19 -409 -28 -109 -65 -174 -140 -248 -78
-77 -134 -109 -256 -146 -86 -27 -100 -28 -295 -28 l-205 0 -530 106 c-572
115 -961 189 -1535 292 -385 69 -1012 176 -1030 176 -6 0 -10 86 -10 250 0
171 3 250 11 250 18 0 474 -77 919 -156 542 -96 1149 -210 1695 -320 392 -78
438 -85 520 -82 140 7 199 46 231 155 13 44 15 102 12 331 l-3 278 -33 66
c-50 102 -137 170 -281 219 -90 31 -1082 227 -1912 378 -258 47 -421 82 -492
105 -405 133 -664 383 -749 723 -19 77 -22 116 -22 308 -1 246 7 291 69 424
83 174 284 306 520 340 87 12 251 13 342 0z m3868 -791 c1129 -267 2474 -623
3588 -949 l67 -20 0 -251 c0 -234 -1 -250 -17 -245 -10 2 -214 61 -453 130
-239 69 -608 173 -820 231 -212 59 -393 109 -402 112 -17 5 -18 -70 -20 -1448
l-3 -1454 -310 81 -310 82 -3 1454 -2 1455 -553 136 c-303 75 -702 172 -884
215 l-333 78 0 248 0 249 38 -7 c20 -3 208 -47 417 -97z m-30485 -196 l0 -248
-182 -43 c-829 -194 -2589 -650 -2766 -717 -166 -62 -285 -190 -312 -336 -13
-68 -13 -275 1 -337 14 -68 45 -111 99 -139 40 -21 55 -23 145 -19 89 4 144
17 485 110 771 211 1656 437 1811 462 123 20 347 20 447 0 179 -36 332 -146
399 -286 58 -121 65 -186 61 -566 -5 -386 -10 -420 -93 -588 -125 -253 -366
-448 -720 -580 -55 -20 -343 -100 -641 -176 -839 -215 -1509 -396 -2241 -607
l-273 -78 0 251 0 251 427 122 c760 216 1383 384 2125 572 510 129 561 147
655 233 65 60 102 120 119 196 17 70 19 506 3 580 -14 67 -45 111 -99 141 -40
22 -56 25 -150 24 -99 0 -126 -6 -485 -98 -532 -136 -933 -242 -1337 -352
-446 -121 -532 -137 -758 -138 -139 0 -188 3 -240 18 -198 54 -313 169 -356
353 -13 55 -15 116 -11 323 4 287 13 340 87 497 107 228 315 431 577 562 145
72 230 101 618 206 866 236 2511 652 2588 654 16 1 17 -17 17 -247z"/>
<path d="M9125 27834 c-71 -13 -287 -54 -480 -89 -192 -36 -626 -120 -962
-187 l-613 -121 0 -575 0 -574 23 5 c131 33 1387 276 1917 372 140 25 280 53
310 62 136 39 240 116 287 212 l28 56 3 333 c3 373 -1 402 -61 459 -59 56 -92
67 -212 70 -84 2 -141 -4 -240 -23z"/>
<path d="M16324 32402 c-67 -277 -258 -535 -494 -664 -33 -18 -60 -36 -60 -40
0 -5 822 -8 1827 -8 1038 0 1823 4 1817 9 -5 4 -63 21 -129 36 -66 14 -356 81
-645 146 -1099 251 -1865 419 -1909 419 -118 1 -243 51 -331 136 l-56 53 -20
-87z"/>
<path d="M19975 22104 c-3532 -60 -6846 -378 -10172 -975 l-292 -52 28 -36
c397 -507 11268 -14311 11280 -14324 16 -16 312 358 5471 6910 3000 3810 5547
7043 5659 7185 112 143 201 261 199 264 -7 7 -861 156 -1308 228 -2822 455
-5519 706 -8460 786 -369 10 -2054 20 -2405 14z m10611 -1850 c-3 -8 -402
-519 -887 -1134 l-881 -1119 -5626 6 -5626 6 105 -129 c58 -71 325 -399 593
-729 l487 -600 4460 -5 4460 -5 -3413 -4335 c-1878 -2384 -3419 -4335 -3425
-4335 -6 0 -725 907 -1598 2015 l-1587 2015 1299 3 1298 3 793 1002 793 1002
-2884 3 -2885 2 -2496 3170 c-1373 1743 -2496 3172 -2496 3175 0 3 4392 5
9761 5 8846 0 9761 -1 9755 -16z"/>
<path d="M8548 20892 c-262 -53 -479 -99 -482 -102 -4 -5 12712 -16161 12753
-16203 17 -17 263 294 6403 8090 3511 4459 6380 8111 6375 8114 -5 4 -232 51
-503 105 l-494 98 -24 -24 c-13 -14 -2657 -3371 -5876 -7460 -3219 -4089
-5856 -7439 -5860 -7443 -4 -4 -2652 3352 -5885 7458 -5164 6558 -5882 7465
-5904 7464 -14 0 -241 -44 -503 -97z"/>
</g>
</svg>
